Coordinates
version=1
nRows=9
nColumns=24
inDegrees=yes

Units are S.I. units (second, meters, Newtons, ...)
Angles are in degrees.

endheader
time	pelvis_tilt	pelvis_list	pelvis_rotation	pelvis_tx	pelvis_ty	pelvis_tz	hip_flexion_r	hip_adduction_r	hip_rotation_r	knee_angle_r	ankle_angle_r	subtalar_angle_r	mtp_angle_r	hip_flexion_l	hip_adduction_l	hip_rotation_l	knee_angle_l	ankle_angle_l	subtalar_angle_l	mtp_angle_l	lumbar_extension	lumbar_bending	lumbar_rotation
      3.48000000	     -5.62212787	     -7.29771452	      0.65991060	     -2.26167727	     -0.01854710	     -0.36402720	     20.91088262	     11.00444624	     -1.91400949	    -19.73743410	     -0.47794652	    -11.84114327	      4.41912896	      6.11859353	    -14.03326809	    -10.40327618	    -55.31874814	    -21.75629332	    -11.43986284	     13.02357188	      2.25672442	      8.07942753	     -3.28256281
      3.48500000	     -5.55705042	     -7.15647570	      0.80098717	     -2.25541838	     -0.01730573	     -0.36344865	     20.20021401	     10.84612769	     -2.16252878	    -19.34443545	     -0.06247227	    -11.47009857	      4.71405407	      6.96741416	    -13.90511298	    -10.13400636	    -56.08006915	    -20.81287328	    -12.64453022	     12.75834918	      2.17025950	      7.84939470	     -3.10851906
      3.49000000	     -5.57713740	     -6.89434169	      0.93853970	     -2.24922051	     -0.01610270	     -0.36307532	     19.60806293	     10.52525873	     -2.47343856	    -18.98186439	      0.21644311	    -11.01784896	      5.94855310	      7.93714420	    -13.57277557	     -9.80265607	    -56.87790301	    -19.25858535	    -13.40310354	     10.26016957	      2.17086723	      7.51572679	     -2.83170382
      3.49500000	     -5.50121905	     -6.71232161	      1.07759073	     -2.24291976	     -0.01474709	     -0.36246936	     18.84738135	     10.38248732	     -2.38822503	    -18.52232918	      0.34554245	    -11.11870828	      6.04024732	      8.74500803	    -13.35913582	     -9.53553728	    -57.44743414	    -18.49182581	    -14.62818145	      9.98608941	      2.08947031	      7.23244138	     -2.67692655
      3.50000000	     -5.50239165	     -6.45923698	      1.21216680	     -2.23678671	     -0.01356809	     -0.36209518	     18.25383850	     10.11250321	     -2.51058101	    -18.18992640	      0.50952655	    -10.97500204	      6.92994570	      9.70697431	    -13.02312200	     -9.28890357	    -58.16546051	    -16.80211756	    -15.31279241	      6.17142575	      2.06466119	      6.90038894	     -2.46597298
      3.50500000	     -5.50301426	     -6.19413493	      1.34164035	     -2.23063779	     -0.01236927	     -0.36165144	     17.66436189	      9.85937613	     -2.50407304	    -17.89624740	      0.79849700	    -10.87832792	      6.94621085	     10.62671730	    -12.65927688	     -9.01863280	    -58.70759703	    -15.72795935	    -16.22071009	      4.26290205	      2.04345646	      6.54710709	     -2.25020035
      3.51000000	     -5.54598359	     -5.92270785	      1.40200260	     -2.22450839	     -0.01127812	     -0.36112319	     17.15274447	      9.62852057	     -2.41131950	    -17.67772737	      1.13783256	    -10.80942565	      6.66624181	     11.56351063	    -12.30193550	     -8.85484395	    -59.19344550	    -14.62217310	    -17.05213484	      2.21330215	      2.05858558	      6.18751238	     -1.99023103
      3.51500000	     -5.49554485	     -5.67337855	      1.53320358	     -2.21830853	     -0.01008927	     -0.36059163	     16.49983722	      9.43135913	     -2.27086336	    -17.36317180	      1.23960916	    -11.05593514	      6.54106782	     12.37409261	    -11.94987707	     -8.59139283	    -59.52666646	    -14.00199408	    -17.96135478	      1.96455751	      1.99843904	      5.83434776	     -1.82187831
      3.52000000	     -5.55902428	     -5.44715986	      1.61794320	     -2.21216700	     -0.00913214	     -0.36021068	     16.02387852	      9.24618355	     -2.13378741	    -17.19190103	      1.77014576	    -10.94895671	      5.37302374	     13.36796484	    -11.60624260	     -8.44475318	    -60.01053811	    -12.32689589	    -18.38370839	     -2.58554101	      2.05099043	      5.53473979	     -1.60010343
